<?xml version="1.0" encoding="UTF-8" standalone="no"?>
<!-- Created with Inkscape (http://www.inkscape.org/) -->

<svg
   width="101.35317mm"
   height="30.637363mm"
   viewBox="0 0 101.35317 30.637363"
   version="1.1"
   id="svg5"
   inkscape:version="1.1.2 (0a00cf5339, 2022-02-04)"
   sodipodi:docname="vocode.svg"
   xmlns:inkscape="http://www.inkscape.org/namespaces/inkscape"
   xmlns:sodipodi="http://sodipodi.sourceforge.net/DTD/sodipodi-0.dtd"
   xmlns="http://www.w3.org/2000/svg"
   xmlns:svg="http://www.w3.org/2000/svg">
  <sodipodi:namedview
     id="namedview7"
     pagecolor="#ffffff"
     bordercolor="#666666"
     borderopacity="1.0"
     inkscape:pageshadow="2"
     inkscape:pageopacity="0.0"
     inkscape:pagecheckerboard="0"
     inkscape:document-units="mm"
     showgrid="false"
     fit-margin-top="5"
     fit-margin-left="5"
     fit-margin-right="5"
     fit-margin-bottom="5"
     lock-margins="true"
     inkscape:zoom="0.7198092"
     inkscape:cx="182.6873"
     inkscape:cy="315.36135"
     inkscape:window-width="1490"
     inkscape:window-height="991"
     inkscape:window-x="26"
     inkscape:window-y="23"
     inkscape:window-maximized="0"
     inkscape:current-layer="layer1" />
  <defs
     id="defs2" />
  <g
     inkscape:label="Layer 1"
     inkscape:groupmode="layer"
     id="layer1"
     transform="translate(-43.366487,-65.314747)">
    <path
       style="fill:#000000;stroke-width:0.264583"
       d="m 53.531886,90.913547 c -0.230999,-0.63297 -5.165399,-16.17921 -5.165399,-16.27402 0,-0.0503 3.690937,-0.0914 8.202083,-0.0914 4.733276,0 8.202084,0.10153 8.202084,0.24007 0,0.13204 -0.722436,2.2454 -1.605412,4.69635 -1.395074,3.87244 -1.738507,4.57762 -2.621264,5.38233 -0.558719,0.50933 -2.335598,2.15877 -3.94862,3.66544 -1.91054,1.78458 -2.978324,2.61457 -3.063472,2.38125 z m 3.900026,-5.3039 2.760627,-2.5645 1.072973,-2.99175 c 0.590135,-1.64546 1.156699,-3.2001 1.259031,-3.45477 0.174,-0.43301 -0.21163,-0.46302 -5.949714,-0.46302 -4.795909,0 -6.109699,0.0722 -6.016373,0.33073 0.06567,0.1819 0.938795,2.91814 1.940278,6.08053 1.001483,3.16238 1.900004,5.72223 1.996714,5.68854 0.09671,-0.0337 1.418119,-1.21528 2.936464,-2.62576 z m 25.4627,-0.32881 c -4.055605,-1.48985 -4.090384,-8.91925 -0.04892,-10.45052 1.040921,-0.39439 3.47096,-0.35191 4.501544,0.0787 1.956175,0.81734 2.962732,2.91909 2.759347,5.76167 -0.150222,2.09956 -0.985472,3.63982 -2.358951,4.35008 -1.173287,0.60673 -3.561053,0.73469 -4.853019,0.26008 z m 4.500637,-2.08357 c 1.526214,-1.52622 1.530381,-4.96351 0.0079,-6.50292 -0.725217,-0.73327 -2.75064,-1.03791 -3.913084,-0.58856 -2.211239,0.85478 -2.741427,5.21279 -0.862738,7.09148 0.786527,0.78653 1.029637,0.87584 2.383968,0.87584 1.35433,0 1.59744,-0.0893 2.38397,-0.87584 z m 7.93478,2.0659 c -3.262313,-1.15352 -4.353611,-5.7805 -2.075358,-8.79927 2.002446,-2.65331 6.641283,-2.55604 8.483679,0.17789 0.81059,1.20284 0.79212,1.87507 -0.0515,1.87507 -0.45934,0 -0.77674,-0.23607 -1.06384,-0.79126 -1.200556,-2.32162 -4.851951,-2.3467 -6.27565,-0.0431 -0.775256,1.25439 -0.813041,3.50181 -0.07957,4.7327 1.308359,2.19566 5.258774,2.15706 6.26951,-0.0613 0.21875,-0.4801 0.50814,-0.66207 1.05294,-0.66207 0.85072,0 0.91652,0.2359 0.36391,1.30454 -1.13862,2.20184 -4.019574,3.1877 -6.624092,2.26677 z m 12.567701,0.0887 c -3.96464,-1.11738 -4.59648,-8.11685 -0.92065,-10.19873 0.78014,-0.44184 1.48411,-0.59748 2.71713,-0.6007 2.9282,-0.008 4.46965,1.25523 5.09582,4.17492 0.97607,4.55129 -2.47594,7.86919 -6.8923,6.62451 z m 3.68163,-1.66401 c 1.01154,-0.52309 1.61004,-1.89952 1.61004,-3.7028 0,-2.57112 -1.25868,-4.11406 -3.35611,-4.11406 -2.40946,0 -3.52306,1.334 -3.52306,4.22031 0,1.87728 0.48019,3.00086 1.52468,3.5676 0.93361,0.50657 2.79304,0.52095 3.74445,0.029 z m 7.77504,1.42234 c -1.62288,-0.80331 -2.32854,-2.36042 -2.32854,-5.13816 0,-3.5117 1.19956,-5.13916 3.95644,-5.36779 1.80906,-0.15002 2.8287,0.24517 3.85969,1.49595 l 0.78283,0.9497 v -3.36757 -3.36758 h 0.79375 0.79375 v 7.54062 7.54063 h -0.6306 c -0.65052,0 -0.94589,-0.55621 -0.95329,-1.79514 -0.003,-0.55432 -0.0747,-0.52358 -0.85938,0.37014 -1.51713,1.72792 -3.41756,2.12776 -5.41465,1.1392 z m 4.98389,-2.00972 c 1.77324,-1.77324 1.45507,-5.52311 -0.5569,-6.56354 -1.13885,-0.58893 -2.96589,-0.51652 -3.81472,0.15117 -2.0079,1.57942 -2.00592,5.25123 0.004,6.83739 1.12425,0.88736 3.26372,0.67918 4.36792,-0.42502 z m 8.50362,2.26596 c -3.6395,-1.05178 -4.4477,-7.4819 -1.24722,-9.92303 0.90127,-0.68743 1.2011,-0.76304 3.02596,-0.76304 1.81112,0 2.12846,0.0785 2.99744,0.74129 1.16616,0.88947 1.71771,1.88214 1.93775,3.48749 l 0.16382,1.19518 h -4.2693 -4.26929 v 0.65248 c 0,1.06171 0.81095,2.44846 1.71723,2.93652 1.70788,0.91976 4.31673,0.1743 4.92116,-1.40618 0.14713,-0.3847 0.44842,-0.59532 0.85158,-0.59532 0.8538,0 0.98754,0.20119 0.67759,1.0194 -0.85527,2.2578 -3.76838,3.44656 -6.50672,2.65521 z m 4.95374,-6.73045 c 0,-0.76413 -0.79908,-1.96041 -1.57884,-2.36364 -1.71343,-0.88604 -3.94015,-0.13006 -4.65479,1.58032 -0.20952,0.50146 -0.38095,0.97511 -0.38095,1.05254 0,0.0774 1.48828,0.14079 3.30729,0.14079 2.81053,0 3.30729,-0.0616 3.30729,-0.41001 z m -65.468003,6.52191 c -0.184108,-0.29789 -4.11741,-10.31377 -4.11741,-10.4847 0,-0.0688 0.388175,-0.12512 0.862611,-0.12512 h 0.862611 l 1.6869,4.43177 c 0.927795,2.43748 1.772081,4.52719 1.876191,4.64381 0.10411,0.11661 0.962326,-1.84792 1.907147,-4.36563 1.716799,-4.57484 1.718392,-4.57771 2.586382,-4.66306 0.805838,-0.0793 0.856689,-0.0383 0.704519,0.56805 -0.0902,0.3594 -1.010507,2.80885 -2.045115,5.44322 l -1.881107,4.78976 h -1.147788 c -0.631283,0 -1.214006,-0.10715 -1.294941,-0.2381 z"
       id="path1085" />
  </g>
</svg>
